<mxfile host="app.diagrams.net" agent="Mozilla/5.0 (Windows NT 10.0; Win64; x64) AppleWebKit/537.36 (KHTML, like Gecko) Chrome/134.0.0.0 Safari/537.36" version="26.2.1">
  <diagram name="Page-1" id="ZqM4Ygj-Qi_CkR0zfDsn">
    <mxGraphModel dx="1428" dy="785" grid="1" gridSize="10" guides="1" tooltips="1" connect="1" arrows="1" fold="1" page="1" pageScale="1" pageWidth="827" pageHeight="1169" math="0" shadow="0">
      <root>
        <mxCell id="0" />
        <mxCell id="1" parent="0" />
        <mxCell id="ypG8sYPIsUQ8iy7Qns4X-43" style="edgeStyle=orthogonalEdgeStyle;rounded=0;orthogonalLoop=1;jettySize=auto;html=1;exitX=1;exitY=0.5;exitDx=0;exitDy=0;" edge="1" parent="1" source="ypG8sYPIsUQ8iy7Qns4X-1" target="ypG8sYPIsUQ8iy7Qns4X-42">
          <mxGeometry relative="1" as="geometry" />
        </mxCell>
        <mxCell id="ypG8sYPIsUQ8iy7Qns4X-1" value="prepare json file with correct format populated with numbers for converted" style="ellipse;whiteSpace=wrap;html=1;" vertex="1" parent="1">
          <mxGeometry x="220" y="545" width="130" height="95" as="geometry" />
        </mxCell>
        <mxCell id="ypG8sYPIsUQ8iy7Qns4X-2" value="" style="ellipse;whiteSpace=wrap;html=1;" vertex="1" parent="1">
          <mxGeometry x="10" y="310" width="120" height="80" as="geometry" />
        </mxCell>
        <mxCell id="ypG8sYPIsUQ8iy7Qns4X-3" value="proffesional user seaking batch currency conversion" style="ellipse;whiteSpace=wrap;html=1;" vertex="1" parent="1">
          <mxGeometry x="20" y="540" width="120" height="80" as="geometry" />
        </mxCell>
        <mxCell id="ypG8sYPIsUQ8iy7Qns4X-4" value="user" style="text;html=1;align=center;verticalAlign=middle;whiteSpace=wrap;rounded=0;" vertex="1" parent="1">
          <mxGeometry x="30" y="335" width="60" height="30" as="geometry" />
        </mxCell>
        <mxCell id="ypG8sYPIsUQ8iy7Qns4X-5" value="" style="endArrow=classic;html=1;rounded=0;exitX=1;exitY=0;exitDx=0;exitDy=0;" edge="1" parent="1" source="ypG8sYPIsUQ8iy7Qns4X-2" target="ypG8sYPIsUQ8iy7Qns4X-6">
          <mxGeometry width="50" height="50" relative="1" as="geometry">
            <mxPoint x="390" y="430" as="sourcePoint" />
            <mxPoint x="280" y="270" as="targetPoint" />
          </mxGeometry>
        </mxCell>
        <mxCell id="ypG8sYPIsUQ8iy7Qns4X-6" value="" style="ellipse;whiteSpace=wrap;html=1;" vertex="1" parent="1">
          <mxGeometry x="170" y="255" width="120" height="80" as="geometry" />
        </mxCell>
        <mxCell id="ypG8sYPIsUQ8iy7Qns4X-8" value="enter number" style="text;html=1;align=center;verticalAlign=middle;whiteSpace=wrap;rounded=0;" vertex="1" parent="1">
          <mxGeometry x="190" y="275" width="60" height="30" as="geometry" />
        </mxCell>
        <mxCell id="ypG8sYPIsUQ8iy7Qns4X-10" value="" style="endArrow=classic;html=1;rounded=0;exitX=1;exitY=0.5;exitDx=0;exitDy=0;entryX=0;entryY=0.5;entryDx=0;entryDy=0;" edge="1" parent="1" source="ypG8sYPIsUQ8iy7Qns4X-2">
          <mxGeometry width="50" height="50" relative="1" as="geometry">
            <mxPoint x="390" y="430" as="sourcePoint" />
            <mxPoint x="280" y="365" as="targetPoint" />
          </mxGeometry>
        </mxCell>
        <mxCell id="ypG8sYPIsUQ8iy7Qns4X-11" value="" style="endArrow=classic;html=1;rounded=0;exitX=0.742;exitY=0.975;exitDx=0;exitDy=0;exitPerimeter=0;" edge="1" parent="1" source="ypG8sYPIsUQ8iy7Qns4X-2" target="ypG8sYPIsUQ8iy7Qns4X-12">
          <mxGeometry width="50" height="50" relative="1" as="geometry">
            <mxPoint x="390" y="430" as="sourcePoint" />
            <mxPoint x="260" y="460" as="targetPoint" />
          </mxGeometry>
        </mxCell>
        <mxCell id="ypG8sYPIsUQ8iy7Qns4X-38" style="edgeStyle=orthogonalEdgeStyle;rounded=0;orthogonalLoop=1;jettySize=auto;html=1;exitX=1;exitY=0.5;exitDx=0;exitDy=0;" edge="1" parent="1" source="ypG8sYPIsUQ8iy7Qns4X-12" target="ypG8sYPIsUQ8iy7Qns4X-35">
          <mxGeometry relative="1" as="geometry" />
        </mxCell>
        <mxCell id="ypG8sYPIsUQ8iy7Qns4X-12" value="" style="ellipse;whiteSpace=wrap;html=1;" vertex="1" parent="1">
          <mxGeometry x="240" y="410" width="120" height="80" as="geometry" />
        </mxCell>
        <mxCell id="ypG8sYPIsUQ8iy7Qns4X-14" value="" style="ellipse;whiteSpace=wrap;html=1;" vertex="1" parent="1">
          <mxGeometry x="280" y="320" width="110" height="80" as="geometry" />
        </mxCell>
        <mxCell id="ypG8sYPIsUQ8iy7Qns4X-15" value="enter number" style="text;html=1;align=center;verticalAlign=middle;whiteSpace=wrap;rounded=0;" vertex="1" parent="1">
          <mxGeometry x="305" y="345" width="60" height="30" as="geometry" />
        </mxCell>
        <mxCell id="ypG8sYPIsUQ8iy7Qns4X-16" value="enter number" style="text;html=1;align=center;verticalAlign=middle;whiteSpace=wrap;rounded=0;" vertex="1" parent="1">
          <mxGeometry x="270" y="435" width="60" height="30" as="geometry" />
        </mxCell>
        <mxCell id="ypG8sYPIsUQ8iy7Qns4X-17" value="" style="ellipse;whiteSpace=wrap;html=1;" vertex="1" parent="1">
          <mxGeometry x="360" y="205" width="140" height="110" as="geometry" />
        </mxCell>
        <mxCell id="ypG8sYPIsUQ8iy7Qns4X-18" value="" style="endArrow=classic;html=1;rounded=0;exitX=1;exitY=0.5;exitDx=0;exitDy=0;entryX=0;entryY=0.5;entryDx=0;entryDy=0;" edge="1" parent="1" source="ypG8sYPIsUQ8iy7Qns4X-6" target="ypG8sYPIsUQ8iy7Qns4X-17">
          <mxGeometry width="50" height="50" relative="1" as="geometry">
            <mxPoint x="390" y="430" as="sourcePoint" />
            <mxPoint x="440" y="380" as="targetPoint" />
          </mxGeometry>
        </mxCell>
        <mxCell id="ypG8sYPIsUQ8iy7Qns4X-29" style="edgeStyle=orthogonalEdgeStyle;rounded=0;orthogonalLoop=1;jettySize=auto;html=1;exitX=1;exitY=0.5;exitDx=0;exitDy=0;" edge="1" parent="1" source="ypG8sYPIsUQ8iy7Qns4X-20" target="ypG8sYPIsUQ8iy7Qns4X-28">
          <mxGeometry relative="1" as="geometry" />
        </mxCell>
        <mxCell id="ypG8sYPIsUQ8iy7Qns4X-20" value="choose unit for conversion eg, grams killograms" style="ellipse;whiteSpace=wrap;html=1;" vertex="1" parent="1">
          <mxGeometry x="440" y="335" width="120" height="80" as="geometry" />
        </mxCell>
        <mxCell id="ypG8sYPIsUQ8iy7Qns4X-21" value="" style="endArrow=classic;html=1;rounded=0;exitX=1;exitY=0.5;exitDx=0;exitDy=0;" edge="1" parent="1" source="ypG8sYPIsUQ8iy7Qns4X-14">
          <mxGeometry width="50" height="50" relative="1" as="geometry">
            <mxPoint x="390" y="430" as="sourcePoint" />
            <mxPoint x="440" y="380" as="targetPoint" />
          </mxGeometry>
        </mxCell>
        <mxCell id="ypG8sYPIsUQ8iy7Qns4X-22" value="choose number type to be convereted into" style="text;html=1;align=center;verticalAlign=middle;whiteSpace=wrap;rounded=0;" vertex="1" parent="1">
          <mxGeometry x="400" y="255" width="60" height="30" as="geometry" />
        </mxCell>
        <mxCell id="ypG8sYPIsUQ8iy7Qns4X-23" value="" style="ellipse;whiteSpace=wrap;html=1;" vertex="1" parent="1">
          <mxGeometry x="550" y="220" width="120" height="80" as="geometry" />
        </mxCell>
        <mxCell id="ypG8sYPIsUQ8iy7Qns4X-25" value="press convert number" style="text;html=1;align=center;verticalAlign=middle;whiteSpace=wrap;rounded=0;" vertex="1" parent="1">
          <mxGeometry x="580" y="245" width="60" height="30" as="geometry" />
        </mxCell>
        <mxCell id="ypG8sYPIsUQ8iy7Qns4X-26" value="" style="endArrow=classic;html=1;rounded=0;exitX=1;exitY=0.5;exitDx=0;exitDy=0;" edge="1" parent="1" source="ypG8sYPIsUQ8iy7Qns4X-17" target="ypG8sYPIsUQ8iy7Qns4X-23">
          <mxGeometry width="50" height="50" relative="1" as="geometry">
            <mxPoint x="390" y="430" as="sourcePoint" />
            <mxPoint x="440" y="380" as="targetPoint" />
          </mxGeometry>
        </mxCell>
        <mxCell id="ypG8sYPIsUQ8iy7Qns4X-27" value="number converted into another" style="ellipse;whiteSpace=wrap;html=1;" vertex="1" parent="1">
          <mxGeometry x="680" y="225" width="120" height="80" as="geometry" />
        </mxCell>
        <mxCell id="ypG8sYPIsUQ8iy7Qns4X-28" value="press convert" style="ellipse;whiteSpace=wrap;html=1;" vertex="1" parent="1">
          <mxGeometry x="570" y="335" width="120" height="80" as="geometry" />
        </mxCell>
        <mxCell id="ypG8sYPIsUQ8iy7Qns4X-30" value="number converted" style="ellipse;whiteSpace=wrap;html=1;" vertex="1" parent="1">
          <mxGeometry x="707" y="330" width="120" height="80" as="geometry" />
        </mxCell>
        <mxCell id="ypG8sYPIsUQ8iy7Qns4X-33" style="edgeStyle=orthogonalEdgeStyle;rounded=0;orthogonalLoop=1;jettySize=auto;html=1;exitX=1;exitY=0.5;exitDx=0;exitDy=0;entryX=0;entryY=0.613;entryDx=0;entryDy=0;entryPerimeter=0;" edge="1" parent="1" source="ypG8sYPIsUQ8iy7Qns4X-28" target="ypG8sYPIsUQ8iy7Qns4X-30">
          <mxGeometry relative="1" as="geometry" />
        </mxCell>
        <mxCell id="ypG8sYPIsUQ8iy7Qns4X-39" style="edgeStyle=orthogonalEdgeStyle;rounded=0;orthogonalLoop=1;jettySize=auto;html=1;exitX=1;exitY=0.5;exitDx=0;exitDy=0;entryX=0;entryY=0.5;entryDx=0;entryDy=0;" edge="1" parent="1" source="ypG8sYPIsUQ8iy7Qns4X-35" target="ypG8sYPIsUQ8iy7Qns4X-36">
          <mxGeometry relative="1" as="geometry" />
        </mxCell>
        <mxCell id="ypG8sYPIsUQ8iy7Qns4X-35" value="choose currency that you will start with" style="ellipse;whiteSpace=wrap;html=1;" vertex="1" parent="1">
          <mxGeometry x="440" y="440" width="120" height="80" as="geometry" />
        </mxCell>
        <mxCell id="ypG8sYPIsUQ8iy7Qns4X-36" value="press convert" style="ellipse;whiteSpace=wrap;html=1;" vertex="1" parent="1">
          <mxGeometry x="570" y="450" width="120" height="80" as="geometry" />
        </mxCell>
        <mxCell id="ypG8sYPIsUQ8iy7Qns4X-37" value="currency converted" style="ellipse;whiteSpace=wrap;html=1;" vertex="1" parent="1">
          <mxGeometry x="700" y="440" width="120" height="80" as="geometry" />
        </mxCell>
        <mxCell id="ypG8sYPIsUQ8iy7Qns4X-40" style="edgeStyle=orthogonalEdgeStyle;rounded=0;orthogonalLoop=1;jettySize=auto;html=1;exitX=1;exitY=0.5;exitDx=0;exitDy=0;entryX=0.025;entryY=0.613;entryDx=0;entryDy=0;entryPerimeter=0;" edge="1" parent="1" source="ypG8sYPIsUQ8iy7Qns4X-36" target="ypG8sYPIsUQ8iy7Qns4X-37">
          <mxGeometry relative="1" as="geometry" />
        </mxCell>
        <mxCell id="ypG8sYPIsUQ8iy7Qns4X-41" value="" style="endArrow=classic;html=1;rounded=0;exitX=1;exitY=0.5;exitDx=0;exitDy=0;entryX=0;entryY=0.5;entryDx=0;entryDy=0;" edge="1" parent="1" source="ypG8sYPIsUQ8iy7Qns4X-3" target="ypG8sYPIsUQ8iy7Qns4X-1">
          <mxGeometry width="50" height="50" relative="1" as="geometry">
            <mxPoint x="390" y="430" as="sourcePoint" />
            <mxPoint x="440" y="380" as="targetPoint" />
          </mxGeometry>
        </mxCell>
        <mxCell id="ypG8sYPIsUQ8iy7Qns4X-45" style="edgeStyle=orthogonalEdgeStyle;rounded=0;orthogonalLoop=1;jettySize=auto;html=1;exitX=1;exitY=0.5;exitDx=0;exitDy=0;" edge="1" parent="1" source="ypG8sYPIsUQ8iy7Qns4X-42" target="ypG8sYPIsUQ8iy7Qns4X-44">
          <mxGeometry relative="1" as="geometry" />
        </mxCell>
        <mxCell id="ypG8sYPIsUQ8iy7Qns4X-42" value="browse for the file and select it" style="ellipse;whiteSpace=wrap;html=1;" vertex="1" parent="1">
          <mxGeometry x="414" y="552.5" width="120" height="80" as="geometry" />
        </mxCell>
        <mxCell id="ypG8sYPIsUQ8iy7Qns4X-44" value="press process batch button" style="ellipse;whiteSpace=wrap;html=1;" vertex="1" parent="1">
          <mxGeometry x="570" y="552.5" width="120" height="80" as="geometry" />
        </mxCell>
        <mxCell id="ypG8sYPIsUQ8iy7Qns4X-46" value="press download json" style="ellipse;whiteSpace=wrap;html=1;" vertex="1" parent="1">
          <mxGeometry x="707" y="552.5" width="120" height="80" as="geometry" />
        </mxCell>
        <mxCell id="ypG8sYPIsUQ8iy7Qns4X-47" value="returned json file to professional user" style="ellipse;whiteSpace=wrap;html=1;" vertex="1" parent="1">
          <mxGeometry x="900" y="552.5" width="120" height="80" as="geometry" />
        </mxCell>
        <mxCell id="ypG8sYPIsUQ8iy7Qns4X-48" value="" style="endArrow=classic;html=1;rounded=0;exitX=1;exitY=0.5;exitDx=0;exitDy=0;entryX=0;entryY=0.5;entryDx=0;entryDy=0;" edge="1" parent="1" source="ypG8sYPIsUQ8iy7Qns4X-46" target="ypG8sYPIsUQ8iy7Qns4X-47">
          <mxGeometry width="50" height="50" relative="1" as="geometry">
            <mxPoint x="630" y="430" as="sourcePoint" />
            <mxPoint x="680" y="380" as="targetPoint" />
          </mxGeometry>
        </mxCell>
      </root>
    </mxGraphModel>
  </diagram>
</mxfile>
